PathFileType	4	(X/Y/Z)	D:\TRACE\v60_Jaco2_6-2-23\JustArmDRS_Motion3_2-v60.trc
DataRate	CameraRate	NumFrames	NumMarkers	Units	OrigDataRate	OrigDataStartFrame	OrigNumFrames
100.00	100.00	      38	9	mm	100.00	876	      7000
Frame#	Time	front left toe			Front right toe			aft left toe			aft right toe			Arm			FL body			FR body			AL Body			AR Body			
		X1	Y1	Z1	X2	Y2	Z2	X3	Y3	Z3	X4	Y4	Z4	X5	Y5	Z5	X6	Y6	Z6	X7	Y7	Z7	X8	Y8	Z8	X9	Y9	Z9	

876	8.750	-150.77913	13.01001	-238.12094	248.05511	12.32132	-172.23653	-239.80630	28.69602	399.31897	169.66476	25.31919	414.36774	94.18155	1187.00867	-407.75375	-7.32498	564.07562	-348.59433	149.84863	562.19434	-326.97009	-124.56581	599.48981	588.22693	25.67949	589.08820	608.32947	
877	8.760	-151.04724	13.20193	-238.01807	248.05142	12.37372	-172.23553	-240.03230	28.57118	399.33304	169.40756	25.16591	414.41925	94.13699	1187.25854	-407.38293	-7.40601	564.26923	-348.41110	149.81145	562.28235	-326.87506	-124.68388	599.41199	588.41968	25.63405	588.92456	608.52295	
878	8.770	-151.15491	13.29785	-237.98019	247.94023	12.46642	-172.24861	-240.23549	28.39103	399.40790	169.26636	24.84457	414.48428	94.03120	1187.56226	-407.07968	-7.62085	564.48431	-348.24826	149.79167	562.42401	-326.70520	-124.85873	599.20850	588.62616	25.44924	588.82166	608.69177	
879	8.780	-151.18356	13.34712	-237.91989	247.57010	12.57665	-172.25415	-240.39722	28.23205	399.54303	169.17018	24.48160	414.70468	93.96906	1187.87830	-406.65570	-7.75938	564.65234	-348.20459	150.07744	562.66620	-326.79745	-125.01534	599.04803	588.81335	25.29207	588.77899	608.80994	
880	8.790	-151.31035	13.48274	-237.87132	247.26787	12.67468	-172.20691	-240.47917	27.86417	399.64282	169.07698	24.17593	414.94803	93.87911	1188.28040	-406.34720	-7.90612	564.83527	-348.07477	149.86473	563.00470	-326.74435	-125.22883	598.94916	588.90277	25.08399	588.65808	608.97723	
881	8.800	-151.56561	13.71814	-237.81158	247.23485	12.92876	-171.97955	-240.77824	27.73855	399.69394	169.09773	24.04999	415.11844	93.86504	1188.57666	-406.11966	-7.75232	564.71295	-347.54276	149.51782	563.38092	-326.60712	-125.39500	598.79144	588.98444	24.82985	588.54449	609.15454	
882	8.810	-151.65800	13.80182	-237.75414	247.06552	13.09890	-171.90475	-241.06389	27.54848	399.78256	168.84099	23.84184	415.07446	93.83083	1188.84680	-405.76813	-8.25649	565.39954	-347.82513	149.35516	563.51337	-326.38879	-125.52678	598.63013	589.12543	24.72537	588.31964	609.22839	
883	8.820	-151.85599	14.00006	-237.69902	246.89647	13.18594	-171.71762	-241.35081	27.45615	399.84277	168.44606	23.63195	415.02737	94.03320	1189.11414	-405.43622	-8.38466	565.61139	-347.58163	148.54086	563.86951	-326.23065	-125.53373	598.44910	589.25140	24.43115	588.19653	609.29797	
884	8.830	-152.10204	14.20817	-237.66513	246.84450	13.31844	-171.42867	-241.41066	27.24277	399.74469	167.96117	23.41205	415.01990	93.36648	1189.52502	-404.96237	-8.58665	565.75958	-347.46875	148.23805	563.92523	-326.06461	-125.50298	598.26251	589.35980	24.31977	587.95697	609.42438	
885	8.840	-152.38054	14.34181	-237.56540	246.34964	13.24308	-171.33148	-241.50815	26.99315	399.83438	167.55284	23.24926	415.11835	93.00049	1189.79504	-404.54117	-8.83085	565.89838	-347.37930	148.24063	564.01404	-325.98407	-125.65592	598.06555	589.46173	24.15036	587.59174	609.55475	
886	8.850	-152.61293	14.49370	-237.47070	246.33209	13.39600	-171.23880	-240.69232	26.23768	400.00021	167.57979	23.16618	415.20364	92.55140	1190.07983	-404.22812	-9.11082	566.13623	-347.24625	148.13901	564.12885	-325.92838	-125.91009	597.74194	589.65607	23.87748	587.34875	609.68542	
887	8.860	-152.81808	14.64962	-237.37738	246.10435	13.45862	-171.22142	-240.72115	25.90397	400.13171	167.49496	23.05858	415.38577	92.42912	1190.23218	-403.91534	-9.29405	566.30945	-347.07150	147.98215	564.30615	-325.68399	-126.12508	597.41174	589.89545	23.81880	587.16467	609.78510	
888	8.870	-153.12183	14.83725	-237.27481	245.94443	13.78927	-171.09511	-241.46359	25.55048	400.39435	167.31380	22.80055	415.49536	92.63979	1190.39001	-403.39130	-9.49495	566.54413	-346.90027	147.64247	564.70996	-325.57837	-126.36890	597.06653	590.04565	23.87315	586.89801	609.94702	
889	8.880	-153.23950	14.91794	-237.20169	245.42218	13.93504	-171.22293	-241.97804	25.68569	400.56824	167.05507	22.40897	415.57626	92.17627	1190.66040	-402.76465	-9.74823	566.86688	-346.73431	147.72615	564.96594	-325.65189	-126.58216	596.86377	590.16650	23.84331	586.58997	610.12909	
890	8.890	-153.25479	14.96000	-237.15654	245.29251	14.09692	-171.19069	-242.26227	25.54043	400.57095	166.87123	21.92592	415.64822	91.66610	1190.79407	-402.60175	-9.88842	567.15643	-346.60101	147.55969	565.08557	-325.49094	-126.62500	596.58990	590.34430	23.59232	586.23322	610.42432	
891	8.900	-153.32993	15.02817	-237.05783	245.13515	14.28646	-171.17053	-242.54988	25.29729	400.57675	166.69446	21.58949	415.74506	91.37775	1191.10559	-401.95258	-9.99917	567.28748	-346.51718	146.69304	565.47101	-325.10120	-126.98840	596.27716	590.50446	23.38530	585.91504	610.66583	
892	8.910	-153.52077	15.30262	-236.87541	245.09317	14.44917	-171.15752	-242.70647	25.16020	400.65640	166.51169	21.25616	415.78830	91.00446	1191.40381	-401.49936	-10.19632	567.52148	-346.28876	147.05785	565.55792	-325.07983	-127.05598	595.91669	590.60278	22.98064	585.46411	610.88403	
893	8.920	-153.60562	15.43433	-236.73221	244.96083	14.53873	-171.12944	-242.81676	25.01679	400.75787	166.46390	21.12634	415.86804	90.61672	1191.74805	-400.92487	-10.53680	567.88226	-346.04349	146.51015	565.82489	-324.71118	-127.46085	595.60413	590.82916	22.79336	585.25958	610.96246	
894	8.930	-153.68579	15.53759	-236.59622	244.90865	14.67305	-171.00716	-242.90605	24.74224	400.95935	166.52559	21.01139	415.97183	90.60657	1192.12048	-400.21893	-10.59436	567.97852	-345.86288	146.41441	566.21930	-324.53448	-127.45020	595.23358	591.17639	22.65753	584.91815	611.18182	
895	8.940	-153.84332	15.72799	-236.45076	244.74080	14.78549	-170.90874	-243.03229	24.45741	400.95941	166.52034	20.86068	416.05478	90.07824	1192.47058	-399.51727	-10.93344	568.26923	-345.66544	146.20547	566.66022	-324.39078	-127.78802	594.84332	591.39722	22.46655	584.50507	611.30029	
896	8.950	-153.97565	15.86202	-236.38489	244.59909	14.86488	-170.80678	-243.20172	24.14574	401.15073	166.24103	20.70941	416.05811	90.06185	1192.75269	-398.81253	-11.16988	568.49963	-345.51135	146.09311	566.88995	-324.28406	-127.85130	594.52924	591.70752	22.24313	584.07153	611.38361	
897	8.960	-154.17867	16.07709	-236.29753	244.46658	14.90937	-170.74840	-243.35820	23.91196	401.19705	166.18234	20.64353	416.05710	89.72098	1193.03186	-398.28284	-11.36471	568.72272	-345.28409	145.77872	567.13019	-324.16556	-128.00531	594.05005	591.87628	22.16236	583.67957	611.65503	
898	8.970	-155.16382	16.60324	-236.19553	244.27002	14.93167	-170.69511	-243.55702	23.64829	401.24231	166.10954	20.46657	416.12341	89.50347	1193.35913	-397.72104	-11.06246	568.62866	-344.56262	145.57227	567.31903	-323.90948	-128.14046	593.71173	592.20984	22.09995	583.38733	611.76221	
899	8.980	-154.47667	16.41920	-236.14357	244.33531	15.18402	-170.43800	-243.71219	23.41195	401.33768	166.06824	20.18626	416.27750	89.32408	1193.69043	-397.08902	-11.22620	569.00153	-344.37823	145.40858	567.53418	-323.68179	-128.24446	593.54596	592.26434	21.91452	583.14642	612.07428	
900	8.990	-154.62338	16.59941	-236.03664	244.22896	15.32955	-170.19562	-243.67381	23.04386	401.44235	165.89650	19.81311	416.44403	88.97147	1194.06421	-396.55099	-11.36056	569.36969	-344.22916	145.15785	567.78619	-323.46732	-128.26433	593.08545	592.46075	21.89465	582.80334	612.48840	
901	9.000	-154.72409	16.70860	-235.96135	244.21150	15.54883	-169.99640	-243.84943	22.83668	401.52057	165.72719	19.44379	416.64929	88.65512	1194.29309	-396.11255	-11.39522	569.52710	-344.00400	144.94202	568.00348	-323.21179	-128.41563	592.67926	592.61151	21.70869	582.38336	612.68188	
902	9.010	-154.76955	16.89026	-235.82086	244.14581	15.78136	-169.82112	-243.93175	22.65881	401.57516	165.68810	19.16111	416.82529	88.50024	1194.55920	-395.66626	-11.47394	569.67456	-343.91864	145.32413	568.27240	-323.27765	-128.64677	592.31152	592.87646	21.44398	582.04016	612.90161	
903	9.020	-154.76978	17.02009	-235.74121	244.09210	15.92168	-169.70456	-244.00844	22.60058	401.73016	165.67528	18.91924	416.93930	88.38150	1194.78589	-394.88037	-11.83647	569.93500	-343.80331	145.30809	568.41559	-323.04572	-128.93398	592.05652	593.00128	21.31083	581.72247	612.98889	
904	9.030	-154.86002	17.19574	-235.63306	243.99280	16.06930	-169.67949	-244.15417	22.44367	401.72723	165.35039	18.64680	416.89828	88.30023	1194.95117	-394.31366	-11.88773	570.15277	-343.57559	145.18219	568.56665	-322.86212	-129.11046	591.87390	593.18646	21.13170	581.54742	613.08160	
905	9.040	-154.96031	17.44672	-235.54132	243.91910	16.17109	-169.70514	-243.95897	22.04964	401.76675	165.35477	18.56551	416.97855	88.10494	1195.21143	-393.91443	-11.84455	570.20898	-343.34885	144.72998	568.86469	-322.56204	-129.16656	591.62860	593.44818	21.22566	581.32837	613.34167	
906	9.050	-154.99759	17.59690	-235.43349	243.59315	16.18764	-169.81561	-244.04462	21.80653	401.81906	165.23459	18.40172	417.05795	87.93674	1195.39404	-393.47958	-11.99298	570.36951	-343.17368	144.61295	568.95642	-322.36911	-129.37328	591.43915	593.78290	20.89716	581.37311	613.40540	
907	9.060	-155.11679	17.68317	-235.14069	243.50323	16.28006	-169.75287	-244.06055	21.64772	401.92480	165.06151	18.17373	417.21085	87.60052	1195.44397	-393.25211	-12.29314	570.59912	-343.04507	144.47914	569.10406	-322.11383	-129.65916	591.12305	593.83984	20.91264	580.82214	613.65735	
908	9.070	-155.20518	17.95224	-235.27623	243.26775	16.42014	-169.72691	-244.04005	21.40547	402.05936	164.93028	17.90436	417.30426	87.39529	1195.52588	-392.81082	-12.47661	570.70630	-342.89835	144.43706	569.16541	-321.83466	-129.72354	590.81818	594.08832	20.74232	580.47052	613.89294	
909	9.080	-155.23778	18.04364	-235.25154	243.33794	16.54685	-169.58788	-244.23920	20.97255	402.41943	164.98636	17.64758	417.34680	87.13508	1195.66760	-392.42261	-12.88560	570.95935	-343.10507	144.69753	569.27179	-321.78903	-129.71446	590.45123	594.29010	20.47952	580.20758	614.14844	
910	9.090	-155.21513	18.11096	-235.20062	243.25717	16.54571	-169.65213	-244.28632	20.82565	402.48376	164.86047	17.39968	417.38187	87.24748	1195.83398	-391.96371	-13.02167	571.08142	-342.90195	144.47968	569.40363	-321.67831	-129.69470	590.14630	594.43805	20.35207	579.99707	614.41626	
911	9.100	-155.18912	18.23998	-235.16280	243.34518	16.57752	-169.60313	-244.30234	20.63334	402.56494	164.64908	17.17513	417.37122	86.51729	1196.15381	-391.53018	-13.17904	571.25537	-342.69379	143.83440	569.66785	-321.29590	-129.82283	589.97211	594.65698	20.15519	579.73395	614.62878	
912	9.110	-155.18324	18.35126	-235.10336	243.22244	16.62323	-169.69713	-244.32439	20.42943	402.57220	164.54085	16.99925	417.46893	86.12907	1196.44165	-391.04086	-13.47086	571.43567	-342.46539	143.65012	569.96844	-321.22559	-130.06546	589.76361	594.78796	20.00667	579.62134	614.68060	
913	9.120	-155.22873	18.60368	-234.99500	243.21721	16.73386	-169.59944	-244.59065	20.54316	402.09171	164.58070	16.77614	417.64810	85.78907	1196.61108	-390.54230	-13.56584	571.54675	-342.36255	143.44792	570.26111	-321.16162	-130.24985	589.36243	594.98877	19.98436	579.40338	614.90601	
